<svg xmlns="http://www.w3.org/2000/svg" viewBox="0 0 120 120">
    <circle cx="60" cy="60" r="50" fill="#dc3545" opacity="0.2"/>
    <circle cx="60" cy="60" r="40" fill="#dc3545" opacity="0.4"/>
    <path d="M60 20c22.1 0 40 17.9 40 40s-17.9 40-40 40-40-17.9-40-40 17.9-40 40-40m0-5c-24.9 0-45 20.1-45 45s20.1 45 45 45 45-20.1 45-45-20.1-45-45-45z" fill="#dc3545"/>
    <path d="M74 46l-4-4L60 52 46 38l-4 4 14 14-14 14 4 4 14-14 14 14 4-4-14-14z" fill="#dc3545" stroke="#dc3545" stroke-width="2"/>
</svg>